<svg version="1.1" xmlns="http://www.w3.org/2000/svg" viewBox="-406.0000010000002 -84.55025038195973 812.0000020000002 212.5268787676102" fill="none" stroke="black" stroke-width="0.6%" vector-effect="non-scaling-stroke">
    <path d="M -286.37825 -61.99057 A 405 52.61216 360 0 1 -50.50229 -76.98967" />
    <path d="M 50.50229 -76.98967 A 405 52.61216 360 0 1 405 -24.78816 A 405 52.61216 360 0 1 -405 -24.78816 A 405 52.61216 360 0 1 -286.37825 -61.99057" />
    <path d="M -405 74.36447 A 405 52.61216 180 0 0 405 74.36447" />
    <path d="M -70.71068 -24.78816 L 0 -15.60237 L 0 -65.17869 L 70.71068 -74.36447 L 0 -83.55025 L -70.71068 -74.36447 L 0 -65.17869" />
    <path d="M 0 -15.60237 L 70.71068 -24.78816 L 70.71068 -74.36447" />
    <path d="M -70.71068 -24.78816 L -70.71068 -74.36447" />
    <path d="M -405 -24.78816 L -405 74.36447" />
    <path d="M 405 -24.78816 L 405 74.36447" />
</svg>